<svg width="273" height="177" viewBox="0 0 273 177" fill="none" xmlns="http://www.w3.org/2000/svg">
<path d="M266.851 25.3914L247.351 5.88138C243.62 2.17649 238.575 0.0973292 233.316 0.0973292C228.058 0.0973292 223.013 2.17649 219.281 5.88138L136.381 88.7914L53.3814 5.79138C49.6541 2.08225 44.6097 0 39.3514 0C34.093 0 29.0486 2.08225 25.3214 5.79138L5.79138 25.2814C2.08225 29.0086 0 34.053 0 39.3114C0 44.5697 2.08225 49.6141 5.79138 53.3414L99.6514 147.201C100.444 148.495 101.384 149.693 102.451 150.771L122.001 170.281C125.878 173.973 131.031 176.022 136.383 176.002C141.736 175.981 146.874 173.892 150.721 170.171L170.231 150.661C171.136 149.742 171.95 148.737 172.661 147.661L266.891 53.4214C270.586 49.6901 272.655 44.6492 272.648 39.3981C272.64 34.1471 270.557 29.1121 266.851 25.3914V25.3914Z" fill="white"/>
</svg>
