<svg width="177" height="274" viewBox="0 0 177 274" fill="none" xmlns="http://www.w3.org/2000/svg">
<g clip-path="url(#clip0)">
<path d="M25.6714 6.50873L6.16141 26.0087C2.45652 29.7403 0.377361 34.7854 0.377361 40.0437C0.377361 45.3021 2.45652 50.3472 6.16141 54.0787L89.0714 136.979L6.07141 219.979C2.36228 223.706 0.28003 228.75 0.28003 234.009C0.28003 239.267 2.36228 244.311 6.07141 248.039L25.5614 267.569C29.2887 271.278 34.3331 273.36 39.5914 273.36C44.8498 273.36 49.8941 271.278 53.6214 267.569L147.481 173.709C148.775 172.916 149.973 171.976 151.051 170.909L170.561 151.359C174.253 147.482 176.302 142.329 176.282 136.977C176.261 131.624 174.172 126.487 170.451 122.639L150.941 103.129C150.022 102.224 149.017 101.41 147.941 100.699L53.7014 6.46872C49.9701 2.77403 44.9292 0.704757 39.6782 0.71225C34.4271 0.719744 29.3921 2.80341 25.6714 6.50873V6.50873Z" fill="white"/>
</g>
<defs>
<clipPath id="clip0">
<rect width="272.64" height="176.08" fill="white" transform="translate(0.280029 273.36) rotate(-90)"/>
</clipPath>
</defs>
</svg>
