<svg xmlns="http://www.w3.org/2000/svg" viewBox="0 0 153.47 153.56"><defs><style>.cls-1{fill:#217cb0;}</style></defs><g id="Calque_2" data-name="Calque 2"><g id="Calque_2-2" data-name="Calque 2"><path class="cls-1" d="M60.85,0a60.85,60.85,0,1,0,60.84,60.85A60.85,60.85,0,0,0,60.85,0Zm0,109A48.15,48.15,0,1,1,109,60.85,48.15,48.15,0,0,1,60.85,109Z"/><rect class="cls-1" x="118.77" y="88.23" width="13.05" height="74.31" rx="6.53" transform="translate(-51.96 125.32) rotate(-45)"/><path class="cls-1" d="M69.32,2.49,71.39,4.3l-4.18,8.64c23.59,1.85,36.31,18.44,36.31,39.44,0,19.72-9.22,29.15-16.56,29-4.78-.17-6-4.81-4.26-14.92l5.12-31.72c-4.27-2.4-12.8-4.29-20.31-4.29-24.58,0-39.93,19-39.93,39.95,0,14.06,8,22.29,19.11,22.29,9,0,16.72-4.45,22-13.2H69c.86,9.09,6.66,13.2,14.68,13.2,18.43,0,32.42-15.77,32.42-40.8C116.14,24.59,96.87,4.54,69.32,2.49ZM67.68,61c-1.54,10-8.2,18-14.51,18-5.63,0-8.53-4.12-8.53-10.63C44.64,55.12,53.51,44,64.78,44a21.16,21.16,0,0,1,5.29.68Z"/></g></g></svg>