<svg width="154" height="154" viewBox="0 0 154 154" fill="none" xmlns="http://www.w3.org/2000/svg">
<g clip-path="url(#clip0)">
<path d="M60.85 8.22073e-07C48.8146 -0.00197706 37.0489 3.56513 27.0408 10.2502C17.0328 16.9353 9.23194 26.4381 4.62482 37.5568C0.017693 48.6755 -1.18877 60.9107 1.15801 72.7151C3.5048 84.5195 9.29941 95.3629 17.809 103.874C26.3187 112.385 37.1611 118.181 48.9651 120.53C60.7691 122.879 73.0045 121.674 84.124 117.069C95.2435 112.464 104.748 104.664 111.434 94.6575C118.121 84.6505 121.69 72.8854 121.69 60.85C121.69 44.7133 115.28 29.2374 103.871 17.8261C92.4616 6.41479 76.9867 0.0026527 60.85 8.22073e-07V8.22073e-07ZM60.85 109C51.3268 109 42.0175 106.176 34.0993 100.885C26.1811 95.5945 20.0096 88.0745 16.3652 79.2762C12.7209 70.4779 11.7673 60.7966 13.6252 51.4564C15.4831 42.1162 20.0689 33.5367 26.8028 26.8028C33.5367 20.0689 42.1162 15.4831 51.4564 13.6252C60.7966 11.7673 70.478 12.7208 79.2762 16.3652C88.0745 20.0096 95.5945 26.1811 100.885 34.0993C106.176 42.0175 109 51.3268 109 60.85C109 73.6202 103.927 85.8673 94.8972 94.8972C85.8673 103.927 73.6202 109 60.85 109Z" fill="white"/>
<path d="M108.256 99.1145C105.706 96.5644 101.573 96.5628 99.025 99.111C96.4768 101.659 96.4784 105.792 99.0285 108.342L142.339 151.653C144.889 154.203 149.022 154.204 151.57 151.656C154.118 149.108 154.117 144.975 151.567 142.425L108.256 99.1145Z" fill="white"/>
<path d="M69.3201 2.48999L71.3901 4.29999L67.2101 12.94C90.8001 14.79 103.52 31.38 103.52 52.38C103.52 72.1 94.3001 81.53 86.9601 81.38C82.1801 81.21 80.9601 76.57 82.7001 66.46L87.8201 34.74C83.5501 32.34 75.0201 30.45 67.5101 30.45C42.9301 30.45 27.5801 49.45 27.5801 70.4C27.5801 84.46 35.5801 92.69 46.6901 92.69C55.6901 92.69 63.4101 88.24 68.6901 79.49H69.0001C69.8601 88.58 75.6601 92.69 83.6801 92.69C102.11 92.69 116.1 76.92 116.1 51.89C116.14 24.59 96.8701 4.53999 69.3201 2.48999ZM67.6801 61C66.1401 71 59.4801 79 53.1701 79C47.5401 79 44.6401 74.88 44.6401 68.37C44.6401 55.12 53.5101 44 64.7801 44C66.565 44.0026 68.3425 44.2311 70.0701 44.68L67.6801 61Z" fill="white"/>
</g>
<defs>
<clipPath id="clip0">
<rect width="153.47" height="153.56" fill="white"/>
</clipPath>
</defs>
</svg>
